<?xml version="1.0" encoding="UTF-8"?>
<svg width="10px" height="14px" viewBox="0 0 10 14" version="1.1" xmlns="http://www.w3.org/2000/svg" xmlns:xlink="http://www.w3.org/1999/xlink">
    <!-- Generator: Sketch 57.1 (83088) - https://sketch.com -->
    <title>female-symbol</title>
    <desc>Created with Sketch.</desc>
    <g id="Page-1" stroke="none" stroke-width="1" fill="none" fill-rule="evenodd">
        <g id="profile" transform="translate(-153.000000, -371.000000)" fill="#FFFFFF" fill-rule="nonzero" stroke="#FFFFFF" stroke-width="0.5">
            <g id="female-symbol" transform="translate(154.000000, 372.000000)">
                <path d="M7.75711235,3.18247498 C7.70805912,2.92964165 7.63461804,2.68236937 7.53786453,2.44430649 C7.44086818,2.20518098 7.32094101,1.97643376 7.17985226,1.76139436 C6.89611366,1.32763182 6.53164884,0.955040915 6.10720309,0.664767842 C5.68726719,0.376761697 5.21567622,0.176421917 4.71955864,0.0753665077 C4.21924343,-0.0251221692 3.7045661,-0.0251221692 3.20425089,0.0753665077 C2.7081333,0.176386496 2.23650764,0.376726276 1.81660643,0.664767842 C1.39229945,0.954615866 1.02783463,1.3267463 0.743957267,1.75997753 C0.46188384,2.18874575 0.265705605,2.67025547 0.166697173,3.17680766 C0.0682437993,3.68764577 0.0682437993,4.21314806 0.166697173,4.72398616 C0.265636223,5.23053836 0.461849149,5.7120835 0.743957267,6.14081629 C1.11914164,6.71353445 1.63364551,7.17687333 2.2370627,7.48538809 C2.60298455,7.67655389 2.99648582,7.80665432 3.40268405,7.87076588 C3.48368779,7.87823966 3.54474415,7.94929369 3.54144849,8.03228452 L3.54144849,9.15158032 C3.54144849,9.23765275 3.473107,9.30743164 3.3888076,9.30743164 L1.77081417,9.30743164 C1.66160655,9.3078921 1.55694346,9.35216805 1.47940883,9.43069586 C1.32385389,9.59168318 1.31896244,9.84883785 1.46830767,10.0158467 L1.47663354,10.0229309 C1.51649363,10.0622833 1.56367354,10.0931348 1.61539799,10.113608 C1.66511035,10.1347187 1.7183612,10.1458054 1.77220181,10.1461951 L3.39297053,10.1461951 C3.43352444,10.146018 3.47244787,10.1623469 3.5012068,10.1915336 C3.52760674,10.220862 3.54200355,10.2593998 3.54144849,10.2992127 L3.54144849,11.9554871 C3.54124034,12.0108498 3.55161299,12.0657165 3.57197667,12.1170058 C3.59181999,12.1699244 3.62207063,12.218132 3.66078591,12.2586888 C3.70050724,12.2982538 3.74772184,12.3291407 3.79955036,12.3493659 C3.90050149,12.3914812 4.01359452,12.3914812 4.11454565,12.3493659 C4.16637417,12.3291053 4.21358878,12.2982184 4.2533101,12.2586888 C4.29202538,12.218132 4.32227603,12.1699244 4.34211934,12.1170058 C4.36248303,12.0657165 4.37285567,12.0108498 4.37264752,11.9554871 L4.37264752,10.2992127 C4.37247407,10.2578059 4.38846667,10.2180638 4.41705214,10.1887 C4.44581107,10.1595133 4.4847345,10.1431843 4.52528841,10.1433614 L6.14466949,10.1433614 C6.1988917,10.1435739 6.25262823,10.1329831 6.30286096,10.1121911 C6.35468948,10.0919305 6.40190408,10.061079 6.44162541,10.021514 C6.48034069,9.98095726 6.51059134,9.93274961 6.53043465,9.87983101 C6.57168238,9.77675662 6.57168238,9.66128496 6.53043465,9.55821057 C6.51961102,9.53136164 6.50611618,9.50571701 6.49019296,9.48170174 L6.43607483,9.42644537 C6.35854019,9.34791756 6.25387711,9.30364161 6.14466949,9.30318114 L4.52251312,9.30318114 C4.48195921,9.30335825 4.44303579,9.28702928 4.41427685,9.25784258 C4.38569138,9.22847878 4.36969878,9.18873669 4.36987223,9.14732983 L4.36987223,8.10454285 L4.36987223,8.03228452 C4.36994161,7.99477394 4.38322831,7.95857393 4.40733863,7.93027275 C4.43131019,7.90243204 4.46433613,7.88433203 4.50031081,7.87926686 C4.91223307,7.81983084 5.31197874,7.69252865 5.68397153,7.50239005 C6.52172718,7.0749324 7.18009509,6.35295119 7.53786453,5.46923881 C7.63468742,5.23071546 7.7081285,4.98298271 7.75711235,4.72965348 C7.85556572,4.21881538 7.85556572,3.69327767 7.75711235,3.18247498 Z M6.94811563,4.56388436 L6.94811563,4.56955168 C6.60803867,6.26284079 4.98792907,7.35404793 3.32952049,7.00681829 C1.67111191,6.65958865 0.602382842,5.00540405 0.942459807,3.31211494 C1.28253677,1.61882583 2.90264637,0.527618685 4.56105495,0.874848329 C5.99296526,1.17464958 7.01833044,2.46506305 7.0106035,3.95748106 C7.00924137,4.16118582 6.98832263,4.36432384 6.94811563,4.56388436 Z" id="Shape"></path>
            </g>
        </g>
    </g>
</svg>