<?xml version="1.0" encoding="UTF-8"?>
<svg width="13px" height="13px" viewBox="0 0 13 13" version="1.1" xmlns="http://www.w3.org/2000/svg" xmlns:xlink="http://www.w3.org/1999/xlink">
    <!-- Generator: Sketch 57.1 (83088) - https://sketch.com -->
    <title>male-symbol</title>
    <desc>Created with Sketch.</desc>
    <g id="Page-1" stroke="none" stroke-width="1" fill="none" fill-rule="evenodd">
        <g id="profile" transform="translate(-162.000000, -372.000000)" fill="#FFFFFF" fill-rule="nonzero" stroke="#FFFFFF" stroke-width="0.5">
            <g id="Group-6" transform="translate(143.000000, 363.000000)">
                <g id="Group" transform="translate(20.000000, 8.000000)">
                    <g id="male-symbol" transform="translate(0.000000, 1.965248)">
                        <path d="M11.4905017,0.417279314 C11.4852389,0.375995802 11.4761167,0.336232639 11.4610301,0.298925428 C11.4605623,0.297989824 11.4605623,0.296703361 11.4603284,0.295533871 C11.4603284,0.295299955 11.4600945,0.295066069 11.4598606,0.294832154 C11.4432537,0.255536792 11.4205653,0.219866903 11.3949531,0.18676991 C11.3886378,0.17893422 11.3824394,0.171215503 11.3757732,0.163847615 C11.3484068,0.132972689 11.3187014,0.104436771 11.284201,0.0811636483 C11.2832654,0.0804619305 11.2820959,0.0802280445 11.2811603,0.0795263266 C11.2478294,0.0575396363 11.21099,0.0409326831 11.1723963,0.0278342293 C11.1628064,0.0244426429 11.1534504,0.0215188884 11.1436265,0.0189459628 C11.1031617,0.00795263266 11.0615273,0 11.0176709,0 L7.66446668,0 C7.40004165,0 7.18543751,0.214604139 7.18543751,0.479029168 C7.18543751,0.743454196 7.40004165,0.958058335 7.66446668,0.958058335 L9.86103062,0.958058335 L7.00194222,3.81714674 C6.23954203,3.20736692 5.30089749,2.87417501 4.31126251,2.87417501 C1.93412703,2.87417501 0,4.80830203 0,7.18543751 C0,9.56257299 1.93412703,11.4967 4.31126251,11.4967 C6.68839799,11.4967 8.62252502,9.56257299 8.62252502,7.18543751 C8.62252502,6.19627037 8.28956699,5.25785971 7.6793194,4.4947578 L10.5386417,1.63543552 L10.5386417,3.83223334 C10.5386417,4.09665837 10.7532458,4.31126251 11.0176709,4.31126251 C11.2820959,4.31126251 11.4967,4.09665837 11.4967,3.83223334 L11.4967,0.479029168 C11.4967,0.468971411 11.494361,0.459381487 11.4937763,0.449557647 C11.4930745,0.438564316 11.4919051,0.428038758 11.4905017,0.417279314 Z M4.31126251,10.5386417 C2.46215846,10.5386417 0.958058335,9.03454157 0.958058335,7.18543751 C0.958058335,5.33633346 2.46215846,3.83223334 4.31126251,3.83223334 C5.20651844,3.83223334 6.04938056,4.18074577 6.68313519,4.81227837 C7.31595425,5.44731946 7.66446668,6.29018158 7.66446668,7.18543751 C7.66446668,9.03454157 6.16036656,10.5386417 4.31126251,10.5386417 Z" id="Shape"></path>
                    </g>
                </g>
            </g>
        </g>
    </g>
</svg>