<?xml version="1.0" encoding="UTF-8"?>
<svg width="40px" height="40px" viewBox="0 0 40 40" version="1.1" xmlns="http://www.w3.org/2000/svg" xmlns:xlink="http://www.w3.org/1999/xlink">
    <!-- Generator: Sketch 57.1 (83088) - https://sketch.com -->
    <title>phone-icon</title>
    <desc>Created with Sketch.</desc>
    <defs>
        <linearGradient x1="50%" y1="0%" x2="50%" y2="100%" id="linearGradient-1">
            <stop stop-color="#00A3FF" offset="0%"></stop>
            <stop stop-color="#006AFF" offset="100%"></stop>
        </linearGradient>
    </defs>
    <g id="Page-1" stroke="none" stroke-width="1" fill="none" fill-rule="evenodd">
        <g id="profile" transform="translate(-41.000000, -486.000000)">
            <g id="Group-8" transform="translate(1.000000, 461.000000)">
                <g id="Group-7" transform="translate(40.000000, 25.000000)">
                    <g id="call-answer">
                        <g id="Group-2">
                            <g id="phone-icon">
                                <circle id="Oval" fill="url(#linearGradient-1)" cx="20" cy="20" r="20"></circle>
                                <path d="M27.6413092,24.655229 L25.1703588,22.1784034 C24.6781912,21.6871017 23.8631522,21.7020287 23.353839,22.2126802 L22.1089636,23.4600999 C22.0303142,23.4166549 21.9489068,23.371275 21.8633165,23.3231307 C21.0771907,22.8865615 20.0012435,22.2881907 18.869033,21.1525854 C17.7334668,20.0145845 17.1358972,18.9345409 16.6989818,18.146127 C16.652877,18.0626002 16.6087028,17.982068 16.5650802,17.9055901 L17.4005745,17.0694466 L17.8113347,16.657249 C18.3214293,16.1458603 18.3354952,15.3292049 17.8444768,14.8364751 L15.3735264,12.359373 C14.882508,11.8673342 14.0671013,11.8822613 13.5570066,12.3936499 L12.8606082,13.0956345 L12.8796385,13.1145697 C12.6461267,13.4132022 12.4509972,13.7576293 12.3057878,14.1290541 C12.1719322,14.4826034 12.0885942,14.8199816 12.0504876,15.158051 C11.7242146,17.8690557 12.9602644,20.3467106 16.3147445,23.7088375 C20.9516551,28.355932 24.6883959,28.0048706 24.8496018,27.9877322 C25.2006969,27.9456693 25.5371746,27.8615897 25.8791223,27.7284904 C26.2464897,27.5846566 26.5899084,27.3893614 26.887682,27.1558273 L26.902897,27.1693722 L27.6083969,26.4769704 C28.1174343,25.9656739 28.1320977,25.1487421 27.6413092,24.655229 Z" id="Path" fill="#FFFFFF" fill-rule="nonzero"></path>
                            </g>
                        </g>
                    </g>
                </g>
            </g>
        </g>
    </g>
</svg>